# xmcd
#
# Track frame offsets:
#	150
#	13931
#	27836
#	42919
#	56874
#	68088
#	82136
#	92514
#	106190
#	117525
#	129432
#	141733
#	156776
#
# Disc length: 2232 seconds
#
# Revision: 0
# Processed by: cddbd v1.5.2PL0 Copyright (c) Steve Scherf et al.
# Submitted via: EZCDAudioConverter 2.1.5.1
#
DISCID=b708b60d
DTITLE=DEBBIE RULE - TEXAS GIRLS
DYEAR=2014
DGENRE=Country
TTITLE0=TEXAS GIRLS
TTITLE1=ROSE GARDEN
TTITLE2=HARPER VALLEY PTA
TTITLE3=I WISH I WAS A TEDDY BEAR
TTITLE4=SILVER THREADS AND GOLDEN NEEDLES
TTITLE5=GOLDEN RING
TTITLE6=WHAT A MAN
TTITLE7=DELTA DAWN
TTITLE8=THE HAPPIEST GIRL IN THE WHOLE USA
TTITLE9=HELP ME MAKE IT THROUGH THE NIGHT
TTITLE10=STAND BY YOUR MAN
TTITLE11=SATIN SHEETS
TTITLE12=ONCE A DAY
EXTD=
EXTT0=
EXTT1=
EXTT2=
EXTT3=
EXTT4=
EXTT5=
EXTT6=
EXTT7=
EXTT8=
EXTT9=
EXTT10=
EXTT11=
EXTT12=
PLAYORDER=
